<svg width="21" height="20" viewBox="0 0 21 20" fill="none" xmlns="http://www.w3.org/2000/svg">
<path d="M3.4899 20C5.04477 20 6.30524 18.7397 6.30524 17.185C6.30524 15.6302 5.04477 14.3699 3.4899 14.3699C1.93503 14.3699 0.674561 15.6302 0.674561 17.185C0.674561 18.7397 1.93503 20 3.4899 20Z" fill="#6D6D6D"/>
<path d="M2.72795 7.38386C1.64314 7.20307 0.674561 8.09408 0.674561 9.19169C0.674561 10.1085 1.35902 10.8446 2.26303 10.9995C6.03404 11.6581 9.00436 14.641 9.6759 18.4116C9.83088 19.3155 10.567 19.9999 11.4839 19.9999C12.5816 19.9999 13.4727 19.0315 13.3049 17.9468C12.875 15.2983 11.6219 12.8525 9.72333 10.9565C7.82475 9.06041 5.37718 7.81041 2.72795 7.38386ZM2.68921 0.0104887C1.61731 -0.105729 0.674561 0.759447 0.674561 1.83123C0.674561 2.77389 1.38485 3.54867 2.31469 3.63906C10.0763 4.41385 16.2493 10.5863 17.0242 18.3471C17.1146 19.2897 17.8895 19.9999 18.8322 19.9999C19.917 19.9999 20.7694 19.0573 20.6661 17.9855C19.7233 8.5073 12.1813 0.953144 2.68921 0.0104887Z" fill="#6D6D6D"/>
</svg>
