<svg width="21" height="20" viewBox="0 0 21 20" fill="none" xmlns="http://www.w3.org/2000/svg">
<path d="M10.6746 0C5.15456 0 0.674561 4.48 0.674561 10C0.674561 15.52 5.15456 20 10.6746 20C16.1946 20 20.6746 15.52 20.6746 10C20.6746 4.48 16.1946 0 10.6746 0ZM10.6746 4C12.6046 4 14.1746 5.57 14.1746 7.5C14.1746 9.43 12.6046 11 10.6746 11C8.74456 11 7.17456 9.43 7.17456 7.5C7.17456 5.57 8.74456 4 10.6746 4ZM10.6746 18C8.64456 18 6.24456 17.18 4.53456 15.12C6.28638 13.7462 8.44832 12.9996 10.6746 12.9996C12.9008 12.9996 15.0627 13.7462 16.8146 15.12C15.1046 17.18 12.7046 18 10.6746 18Z" fill="#6D6D6D"/>
</svg>
