<svg width="21" height="20" viewBox="0 0 21 20" fill="none" xmlns="http://www.w3.org/2000/svg">
<path d="M18.388 10C18.388 9.77 18.3777 9.55 18.3571 9.32L20.2701 7.91C20.6815 7.61 20.7946 7.05 20.5375 6.61L18.6143 3.38C18.4909 3.16818 18.2915 3.00814 18.0542 2.93062C17.8169 2.8531 17.5585 2.86356 17.3287 2.96L15.1175 3.87C14.737 3.61 14.3359 3.38 13.9142 3.19L13.6159 0.88C13.5542 0.38 13.112 0 12.5978 0H8.76163C8.23712 0 7.79488 0.38 7.73317 0.88L7.43492 3.19C7.01325 3.38 6.61215 3.61 6.23162 3.87L4.02044 2.96C3.54735 2.76 2.99198 2.94 2.73487 3.38L0.811652 6.62C0.554537 7.06 0.667668 7.61 1.07905 7.92L2.99198 9.33C2.9491 9.77903 2.9491 10.231 2.99198 10.68L1.07905 12.09C0.667668 12.39 0.554537 12.95 0.811652 13.39L2.73487 16.62C2.99198 17.06 3.54735 17.24 4.02044 17.04L6.23162 16.13C6.61215 16.39 7.01325 16.62 7.43492 16.81L7.73317 19.12C7.79488 19.62 8.23712 20 8.75134 20H12.5875C13.1017 20 13.544 19.62 13.6057 19.12L13.9039 16.81C14.3256 16.62 14.7267 16.39 15.1072 16.13L17.3184 17.04C17.7915 17.24 18.3469 17.06 18.604 16.62L20.5272 13.39C20.7843 12.95 20.6712 12.4 20.2598 12.09L18.3469 10.68C18.3777 10.45 18.388 10.23 18.388 10ZM10.7157 13.5C8.73078 13.5 7.1161 11.93 7.1161 10C7.1161 8.07 8.73078 6.5 10.7157 6.5C12.7006 6.5 14.3153 8.07 14.3153 10C14.3153 11.93 12.7006 13.5 10.7157 13.5Z" fill="#6D6D6D"/>
</svg>
