<?xml version="1.0" encoding="UTF-8"?>
<svg xmlns="http://www.w3.org/2000/svg" version="1.1" viewBox="0 0 1920 1920">
  <g>
    <g id="Layer_1">
      <defs>
        <style>
          .cls-1 {
            fill: var(--color-text-gray);
          }
        </style>
      </defs>
      <g>
        <path class="cls-1" d="M881.7,1907.6h-473.1c-218.8,0-396.3-177.4-396.3-396.3V409.6C12.4,190.8,189.8,13.4,408.6,13.4h1101.8c218.8,0,396.3,177.4,396.3,396.3v440.1c0,6.9-5.6,12.5-12.5,12.5h-137.3c-6.9,0-12.5-5.6-12.5-12.5v-440.1c0-129.2-104.7-233.9-233.9-233.9H408.6c-129.2,0-233.9,104.7-233.9,233.9v1101.8c0,129.2,104.7,233.9,233.9,233.9h473.1c6.9,0,12.5,5.6,12.5,12.5v137.3c0,6.9-5.6,12.5-12.5,12.5Z"/>
        <path class="cls-1" d="M881.7,1921h-473.1c-55.3,0-108.9-10.8-159.4-32.2-48.8-20.6-92.6-50.2-130.2-87.8-37.6-37.6-67.1-81.4-87.8-130.2-21.4-50.5-32.2-104.2-32.2-159.4V409.6c0-55.3,10.8-108.9,32.2-159.4,20.6-48.8,50.2-92.6,87.8-130.2,37.6-37.6,81.4-67.1,130.2-87.8C299.7,10.8,353.3,0,408.6,0h1101.8c55.3,0,108.9,10.8,159.4,32.2,48.8,20.6,92.6,50.2,130.2,87.8,37.6,37.6,67.1,81.4,87.8,130.2,21.4,50.5,32.2,104.2,32.2,159.4v440.1c0,14.3-11.6,25.9-25.9,25.9h-137.3c-14.3,0-25.9-11.6-25.9-25.9v-440.1c0-121.6-98.9-220.5-220.5-220.5H408.6c-121.6,0-220.5,98.9-220.5,220.5v1101.8c0,121.6,98.9,220.5,220.5,220.5h473.1c14.3,0,25.9,11.6,25.9,25.9v137.3c0,14.3-11.6,25.9-25.9,25.9ZM408.6,26.7C197.5,26.7,25.7,198.5,25.7,409.6v1101.8c0,211.1,171.8,382.9,382.9,382.9h472.2v-135.7h-472.2c-66,0-128.1-25.7-174.8-72.4-46.7-46.7-72.4-108.8-72.4-174.8V409.6c0-66,25.7-128.1,72.4-174.8,46.7-46.7,108.8-72.4,174.8-72.4h1101.8c66,0,128.1,25.7,174.8,72.4,46.7,46.7,72.4,108.8,72.4,174.8v439.3h135.7v-439.3c0-211.1-171.8-382.9-382.9-382.9H408.6Z"/>
      </g>
      <g>
        <rect class="cls-1" x="1038.5" y="1009.2" width="162.4" height="898.4" rx="12.5" ry="12.5"/>
        <path class="cls-1" d="M1188.4,1921h-137.3c-14.3,0-25.9-11.6-25.9-25.9v-873.4c0-14.3,11.6-25.9,25.9-25.9h137.3c14.3,0,25.9,11.6,25.9,25.9v873.4c0,14.3-11.6,25.9-25.9,25.9ZM1051.9,1894.3h135.7v-871.7h-135.7v871.7Z"/>
      </g>
      <g>
        <rect class="cls-1" x="1395.7" y="1009.2" width="162.4" height="898.4" rx="12.5" ry="12.5"/>
        <path class="cls-1" d="M1545.6,1921h-137.3c-14.3,0-25.9-11.6-25.9-25.9v-873.4c0-14.3,11.6-25.9,25.9-25.9h137.3c14.3,0,25.9,11.6,25.9,25.9v873.4c0,14.3-11.6,25.9-25.9,25.9ZM1409.1,1894.3h135.7v-871.7h-135.7v871.7Z"/>
      </g>
      <g>
        <rect class="cls-1" x="1744.3" y="1009.2" width="162.4" height="898.4" rx="12.5" ry="12.5"/>
        <path class="cls-1" d="M1894.1,1921h-137.3c-14.3,0-25.9-11.6-25.9-25.9v-873.4c0-14.3,11.6-25.9,25.9-25.9h137.3c14.3,0,25.9,11.6,25.9,25.9v873.4c0,14.3-11.6,25.9-25.9,25.9ZM1757.6,1894.3h135.7v-871.7h-135.7v871.7Z"/>
      </g>
    </g>
  </g>
</svg>