<svg width="1400" height="650" viewBox="0 0 1400 650" fill="none" xmlns="http://www.w3.org/2000/svg">
<g opacity="0.5">
<path d="M125.154 318.548C99.0996 318.548 47.0347 324.731 19.6318 325.806H1355.83C1239.26 325.806 1302.45 319.354 1192.64 321.774C1014.75 325.693 1016.56 151.612 955.828 151.612C901.84 151.612 868.711 333.66 805.521 290.322C749.08 251.612 714.724 251.612 669.325 293.548C636.547 323.825 604.908 311.29 563.804 311.29C528.834 311.29 513.497 320.967 469.939 320.161C426.38 319.354 389.369 328.194 346.626 276.613C309.202 231.451 265.644 217.741 222.086 276.613C185.142 326.545 159.509 318.548 125.154 318.548Z" fill="var(--color-panel-gray-10p)"/>
<path d="M125.154 333.064C99.0996 333.064 47.0347 326.881 19.6318 325.805L1355.83 325.805C1239.26 325.805 1302.45 332.257 1192.64 329.838C1014.75 325.919 1016.56 499.999 955.828 499.999C901.84 499.999 868.711 317.951 805.521 361.289C749.08 399.999 714.724 399.999 669.325 358.063C636.547 327.786 604.908 340.322 563.804 340.322C528.834 340.322 513.497 330.644 469.939 331.451C426.38 332.257 389.369 323.417 346.626 374.999C309.202 420.16 265.644 433.87 222.086 374.999C185.142 325.066 159.509 333.064 125.154 333.064Z" fill="var(--color-panel-gray-10p)"/>
</g>
<g opacity="0.5">
<path d="M157.055 317.792C99.1407 319.082 42.2332 324.462 20.9653 325.806H1400C1400 325.806 1253.99 321.017 1157.67 312.146C1061.35 303.275 1053.99 146.823 998.772 150.049C943.557 153.275 917.177 275.049 854.601 287.146C792.024 299.243 759.509 227.469 711.656 281.501C663.803 335.533 648.466 312.146 603.68 311.339C558.895 310.533 584.049 317.792 507.975 317.792C431.901 317.792 430.061 304.082 384.049 220.211C338.036 136.34 323.926 124.243 277.3 220.211C230.688 316.151 229.448 316.179 157.117 317.79L157.055 317.792Z" fill="var(--color-panel-gray-20p)"/>
<path d="M157.056 330.597C99.1417 329.307 42.1273 327.152 20.8594 325.808L1400 325.808C1400 325.808 1253.99 327.372 1157.67 336.243C1061.35 345.114 1053.99 501.565 998.773 498.339C943.559 495.114 917.178 373.339 854.602 361.243C792.025 349.146 759.51 420.92 711.657 366.888C663.804 312.856 648.467 336.243 603.681 337.049C558.896 337.856 584.05 330.597 507.976 330.597C431.902 330.597 430.062 344.307 384.05 428.178C338.037 512.049 323.927 524.145 277.301 428.178C230.689 332.238 229.449 332.21 157.118 330.598L157.056 330.597Z" fill="var(--color-panel-gray-20p)"/>
</g>
<g opacity="0.5">
<path d="M218.405 317.742C180.982 317.742 112.27 324.194 72.3931 325.806H1355.83C1291.21 324.462 1153.27 322.493 1098.16 304.839C1025.15 281.452 1028.83 293.548 974.233 304.839C906.121 318.923 891.648 270.495 864.417 221.774C842.331 182.258 814.11 170.161 781.595 221.774C749.08 273.387 738.037 252.419 717.178 182.258L716.454 179.824C692.131 98.0015 662.997 0 643.558 0C623.927 0 613.497 37.9032 590.798 111.29C568.098 184.677 546.012 304.426 485.89 240.322C430.675 181.451 411.437 183.442 355.828 257.257C293.252 340.323 255.829 317.742 218.405 317.742Z" fill="var(--color-panel-gray-30p)"/>
<path d="M218.405 332.258C180.982 332.258 112.27 327.419 72.393 325.806L1349.08 325.806C1284.46 327.151 1153.27 327.507 1098.16 345.161C1025.15 368.548 1028.83 356.451 974.233 345.161C906.121 331.077 891.648 379.505 864.417 428.226C842.331 467.742 814.111 479.839 781.595 428.226C749.08 376.613 738.037 397.581 717.178 467.742L716.455 470.174C692.131 551.997 662.997 650 643.558 650C623.926 650 613.497 612.097 590.798 538.71C568.098 465.323 546.012 345.574 485.89 409.678C430.675 468.549 411.437 466.558 355.828 392.743C293.252 309.677 255.828 332.258 218.405 332.258Z" fill="var(--color-panel-gray-30p)"/>
</g>
<g opacity="0.5">
<path d="M132.515 320.636C98.1595 323.862 36.8098 325.807 0 325.807H1309.2C1121.47 325.807 1153.37 260.959 1085.28 260.959C1014.72 260.959 1015.95 321.252 957.668 321.252C851.533 321.252 822.99 201.282 804.908 112.573C795.273 65.3044 752.147 45.4448 733.129 112.572C710.974 190.768 688.343 200.274 644.172 206.927C612.354 211.719 600.613 320.636 579.754 320.636C562.576 320.636 555.828 234.145 520.245 234.145C485.867 234.145 487.116 279.306 444.172 287.37C401.227 295.435 398.159 248.056 345.399 246.443C292.638 244.83 269.325 323.661 230.675 323.661C189.456 323.661 175.46 316.604 132.515 320.636Z" fill="var(--color-panel-gray-40p)"/>
<path d="M132.515 330.975C98.1595 327.749 36.8098 325.804 -1.49957e-05 325.804L1309.2 325.804C1121.47 325.804 1153.37 390.652 1085.28 390.652C1014.72 390.652 1015.95 330.359 957.668 330.359C851.533 330.359 822.99 450.329 804.908 539.039C795.273 586.307 752.147 606.166 733.129 539.039C710.974 460.843 688.343 451.338 644.172 444.685C612.354 439.892 600.613 330.975 579.754 330.975C562.576 330.975 555.828 417.467 520.245 417.467C485.867 417.467 487.116 372.306 444.172 364.241C401.227 356.177 398.159 403.555 345.399 405.168C292.638 406.781 269.325 327.951 230.675 327.951C189.456 327.951 175.46 335.007 132.515 330.975Z" fill="var(--color-panel-gray-40p)"/>
</g>
</svg>
