<svg width="23" height="22" viewBox="0 0 23 22" fill="none" xmlns="http://www.w3.org/2000/svg">
<path d="M1.67456 2.66667C1.67456 2.22464 1.85016 1.80072 2.16272 1.48816C2.47528 1.17559 2.8992 1 3.34123 1H20.0079C20.4499 1 20.8738 1.17559 21.1864 1.48816C21.499 1.80072 21.6746 2.22464 21.6746 2.66667V19.3333C21.6746 19.7754 21.499 20.1993 21.1864 20.5118C20.8738 20.8244 20.4499 21 20.0079 21H3.34123C2.8992 21 2.47528 20.8244 2.16272 20.5118C1.85016 20.1993 1.67456 19.7754 1.67456 19.3333V2.66667Z" stroke="#6D6D6D" stroke-width="2" stroke-linejoin="round"/>
<path d="M16.1191 1V21M7.23022 8.77778L9.45245 11L7.23022 13.2222M12.7858 1H19.4524M12.7858 21H19.4524" stroke="#6D6D6D" stroke-width="2" stroke-linecap="round" stroke-linejoin="round"/>
</svg>
