<svg width="20" height="20" viewBox="0 0 20 20" fill="none" xmlns="http://www.w3.org/2000/svg">
<path d="M2.81044 2.22222H9.21807C9.80544 2.22222 10.286 1.72222 10.286 1.11111C10.286 0.5 9.80544 0 9.21807 0H2.81044C1.63571 0 0.674561 1 0.674561 2.22222V17.7778C0.674561 19 1.63571 20 2.81044 20H9.21807C9.80544 20 10.286 19.5 10.286 18.8889C10.286 18.2778 9.80544 17.7778 9.21807 17.7778H2.81044V2.22222Z" fill="#6D6D6D"/>
<path d="M19.5238 9.61115L16.5442 6.51115C16.4699 6.43177 16.3746 6.37724 16.2704 6.35456C16.1661 6.33188 16.0578 6.34208 15.9591 6.38384C15.8605 6.4256 15.7761 6.49703 15.7167 6.58899C15.6573 6.68095 15.6257 6.78926 15.6258 6.90004V8.88893H8.15021C7.56285 8.88893 7.08228 9.38893 7.08228 10C7.08228 10.6112 7.56285 11.1112 8.15021 11.1112H15.6258V13.1C15.6258 13.6 16.2025 13.8445 16.5335 13.4889L19.5131 10.3889C19.7267 10.1778 19.7267 9.82227 19.5238 9.61115Z" fill="#6D6D6D"/>
</svg>
