<svg width="40" height="39" viewBox="0 0 40 39" fill="none" xmlns="http://www.w3.org/2000/svg">
<path d="M18.5722 39H8.83281C4.32704 39 0.674561 35.3475 0.674561 30.8417V8.15825C0.674561 3.65247 4.32704 0 8.83281 0H31.5163C36.0221 0 39.6746 3.65247 39.6746 8.15825V17.2191C39.6746 17.3616 39.5589 17.4772 39.4165 17.4772H36.5899C36.4474 17.4772 36.3318 17.3616 36.3318 17.2191V8.15825C36.3318 5.49872 34.1758 3.34275 31.5163 3.34275H8.83281C6.17328 3.34275 4.01731 5.49872 4.01731 8.15825V30.8417C4.01731 33.5013 6.17328 35.6573 8.83281 35.6573H18.5722C18.7147 35.6573 18.8303 35.7729 18.8303 35.9154V38.7419C18.8303 38.8844 18.7147 39 18.5722 39Z" fill="#F6F6F6"/>
<path d="M24.8859 39H22.0594C21.9169 39 21.8013 38.8844 21.8013 38.7419V20.7609C21.8013 20.6184 21.9169 20.5027 22.0594 20.5027H25.144V38.7419C25.144 38.8844 25.0284 39 24.8859 39Z" fill="#F6F6F6"/>
<path d="M32.2404 20.5027H29.4139C29.2713 20.5027 29.1558 20.6183 29.1558 20.7609V38.7419C29.1558 38.8844 29.2713 39 29.4139 39H32.2404C32.3829 39 32.4985 38.8844 32.4985 38.7419V20.7609C32.4985 20.6183 32.3829 20.5027 32.2404 20.5027Z" fill="#F6F6F6"/>
<path d="M39.4164 20.5027H36.5899C36.4473 20.5027 36.3318 20.6183 36.3318 20.7609V38.7419C36.3318 38.8844 36.4473 39 36.5899 39H39.4164C39.559 39 39.6745 38.8844 39.6745 38.7419V20.7609C39.6745 20.6183 39.559 20.5027 39.4164 20.5027Z" fill="#F6F6F6"/>
</svg>
