<svg width="21" height="19" viewBox="0 0 21 19" fill="none" xmlns="http://www.w3.org/2000/svg">
<path d="M2.05102 5.58329H15.8156C16.5727 5.58329 17.1921 6.21141 17.1921 6.97912C17.1921 7.74682 16.5727 8.37494 15.8156 8.37494H2.05102C1.29397 8.37494 0.674561 7.74682 0.674561 6.97912C0.674561 6.21141 1.29397 5.58329 2.05102 5.58329ZM2.05102 0H15.8156C16.5727 0 17.1921 0.62812 17.1921 1.39582C17.1921 2.16353 16.5727 2.79165 15.8156 2.79165H2.05102C1.29397 2.79165 0.674561 2.16353 0.674561 1.39582C0.674561 0.62812 1.29397 0 2.05102 0ZM2.05102 11.1666H10.3098C11.0669 11.1666 11.6863 11.7947 11.6863 12.5624C11.6863 13.3301 11.0669 13.9582 10.3098 13.9582H2.05102C1.29397 13.9582 0.674561 13.3301 0.674561 12.5624C0.674561 11.7947 1.29397 11.1666 2.05102 11.1666ZM14.4392 12.3949V18.2992C14.4392 18.8436 15.0173 19.1786 15.4853 18.8994L20.3442 15.9403C20.7847 15.6751 20.7847 15.0191 20.3442 14.7399L15.4853 11.7807C15.3791 11.7192 15.2588 11.687 15.1364 11.6874C15.0141 11.6877 14.894 11.7206 14.7881 11.7828C14.6822 11.8449 14.5943 11.9342 14.533 12.0416C14.4718 12.149 14.4394 12.2708 14.4392 12.3949Z" fill="#6D6D6D"/>
</svg>
