<svg width="21" height="20" viewBox="0 0 21 20" fill="none" xmlns="http://www.w3.org/2000/svg">
<path d="M10.6746 0C5.15456 0 0.674561 4.48 0.674561 10C0.674561 15.52 5.15456 20 10.6746 20C16.1946 20 20.6746 15.52 20.6746 10C20.6746 4.48 16.1946 0 10.6746 0ZM10.6746 14.5C8.18456 14.5 6.17456 12.49 6.17456 10C6.17456 7.51 8.18456 5.5 10.6746 5.5C13.1646 5.5 15.1746 7.51 15.1746 10C15.1746 12.49 13.1646 14.5 10.6746 14.5ZM10.6746 9C10.1246 9 9.67456 9.45 9.67456 10C9.67456 10.55 10.1246 11 10.6746 11C11.2246 11 11.6746 10.55 11.6746 10C11.6746 9.45 11.2246 9 10.6746 9Z" fill="#6D6D6D"/>
</svg>
