<svg width="21" height="18" viewBox="0 0 21 18" fill="none" xmlns="http://www.w3.org/2000/svg">
<path d="M12.0582 0.00348946C7.04216 -0.136483 2.93278 3.95272 2.93278 9.00173H1.1688C0.725346 9.00173 0.508544 9.54162 0.823892 9.85156L3.57333 12.651C3.77043 12.851 4.07592 12.851 4.27301 12.651L7.02246 9.85156C7.09055 9.78108 7.13656 9.69172 7.15469 9.59476C7.17281 9.49779 7.16224 9.39754 7.1243 9.30666C7.08636 9.21578 7.02275 9.13833 6.9415 9.08406C6.86024 9.0298 6.76497 9.00115 6.66769 9.00173H4.90371C4.90371 5.10249 8.03748 1.95311 11.9005 2.0031C15.5664 2.05309 18.6509 5.18248 18.7002 8.90175C18.7495 12.811 15.6453 16.0004 11.802 16.0004C10.2154 16.0004 8.74702 15.4505 7.58417 14.5206C7.39542 14.3698 7.1586 14.2946 6.91875 14.3093C6.67891 14.3241 6.45277 14.4278 6.28336 14.6006C5.86946 15.0205 5.89903 15.7304 6.3622 16.0903C7.91056 17.3324 9.82807 18.0056 11.802 18C16.7785 18 20.8091 13.8308 20.6711 8.74178C20.543 4.0527 16.68 0.133464 12.0582 0.00348946ZM11.5556 5.00251C11.1515 5.00251 10.8165 5.34244 10.8165 5.75236V9.43164C10.8165 9.78158 11.0037 10.1115 11.2994 10.2915L14.374 12.1411C14.7288 12.3511 15.1821 12.2311 15.389 11.8812C15.596 11.5212 15.4777 11.0613 15.1328 10.8514L12.2947 9.1417V5.74237C12.2947 5.34244 11.9596 5.00251 11.5556 5.00251Z" fill="#6D6D6D"/>
</svg>
