<svg width="21" height="20" viewBox="0 0 21 20" fill="none" xmlns="http://www.w3.org/2000/svg">
<path d="M1.67456 4C1.12456 4 0.674561 4.45 0.674561 5V18C0.674561 19.1 1.57456 20 2.67456 20H15.6746C16.2246 20 16.6746 19.55 16.6746 19C16.6746 18.45 16.2246 18 15.6746 18H3.67456C3.12456 18 2.67456 17.55 2.67456 17V5C2.67456 4.45 2.22456 4 1.67456 4ZM18.6746 0H6.67456C5.57456 0 4.67456 0.9 4.67456 2V14C4.67456 15.1 5.57456 16 6.67456 16H18.6746C19.7746 16 20.6746 15.1 20.6746 14V2C20.6746 0.9 19.7746 0 18.6746 0ZM16.6746 9H8.67456C8.12456 9 7.67456 8.55 7.67456 8C7.67456 7.45 8.12456 7 8.67456 7H16.6746C17.2246 7 17.6746 7.45 17.6746 8C17.6746 8.55 17.2246 9 16.6746 9ZM12.6746 13H8.67456C8.12456 13 7.67456 12.55 7.67456 12C7.67456 11.45 8.12456 11 8.67456 11H12.6746C13.2246 11 13.6746 11.45 13.6746 12C13.6746 12.55 13.2246 13 12.6746 13ZM16.6746 5H8.67456C8.12456 5 7.67456 4.55 7.67456 4C7.67456 3.45 8.12456 3 8.67456 3H16.6746C17.2246 3 17.6746 3.45 17.6746 4C17.6746 4.55 17.2246 5 16.6746 5Z" fill="#6D6D6D"/>
</svg>
