<svg width="19" height="18" viewBox="0 0 19 18" fill="none" xmlns="http://www.w3.org/2000/svg">
<path d="M2.17331 0C2.99762 0 3.67206 0.675 3.67206 1.5V16.5C3.67206 17.325 2.99762 18 2.17331 18C1.349 18 0.674561 17.325 0.674561 16.5V1.5C0.674561 0.675 1.349 0 2.17331 0ZM7.65874 10.23L16.3065 16.335C17.2957 17.04 18.6746 16.32 18.6746 15.105V2.895C18.6746 1.68 17.3107 0.975 16.3065 1.665L7.65874 7.77C7.46086 7.90824 7.29926 8.09225 7.18767 8.30639C7.07609 8.52054 7.01782 8.75848 7.01782 9C7.01782 9.24152 7.07609 9.47946 7.18767 9.69361C7.29926 9.90775 7.46086 10.0918 7.65874 10.23Z" fill="#6D6D6D"/>
</svg>
