<svg width="19" height="16" viewBox="0 0 19 16" fill="none" xmlns="http://www.w3.org/2000/svg">
<path d="M10.4391 0.366293L5.97579 4.93919C5.6777 5.2446 5.50851 5.66557 5.50851 6.10305V14.3491C5.50851 15.2571 6.2336 16 7.11983 16H14.3708C15.0153 16 15.5954 15.6038 15.8532 15.0012L18.4796 8.71968C19.1564 7.08532 17.9882 5.26937 16.256 5.26937H11.704L12.4694 1.48888C12.55 1.07617 12.4291 0.655194 12.1391 0.358038C11.6637 -0.120713 10.9064 -0.120713 10.4391 0.366293ZM2.28588 16C3.1721 16 3.89719 15.2571 3.89719 14.3491V7.74567C3.89719 6.83769 3.1721 6.0948 2.28588 6.0948C1.39965 6.0948 0.674561 6.83769 0.674561 7.74567V14.3491C0.674561 15.2571 1.39965 16 2.28588 16Z" fill="#6D6D6D"/>
</svg>
