<svg width="37" height="36" viewBox="0 0 37 36" fill="none" xmlns="http://www.w3.org/2000/svg">
<path d="M18.6746 0C8.73856 0 0.674561 8.064 0.674561 18C0.674561 27.936 8.73856 36 18.6746 36C28.6106 36 36.6746 27.936 36.6746 18C36.6746 8.064 28.6106 0 18.6746 0ZM15.0746 25.2C14.0846 25.2 13.2746 24.39 13.2746 23.4V12.6C13.2746 11.61 14.0846 10.8 15.0746 10.8C16.0646 10.8 16.8746 11.61 16.8746 12.6V23.4C16.8746 24.39 16.0646 25.2 15.0746 25.2ZM22.2746 25.2C21.2846 25.2 20.4746 24.39 20.4746 23.4V12.6C20.4746 11.61 21.2846 10.8 22.2746 10.8C23.2646 10.8 24.0746 11.61 24.0746 12.6V23.4C24.0746 24.39 23.2646 25.2 22.2746 25.2Z" fill="#F6F6F6"/>
</svg>
