<svg width="21" height="14" viewBox="0 0 21 14" fill="none" xmlns="http://www.w3.org/2000/svg">
<path d="M11.6746 4H1.67456C1.12456 4 0.674561 4.45 0.674561 5C0.674561 5.55 1.12456 6 1.67456 6H11.6746C12.2246 6 12.6746 5.55 12.6746 5C12.6746 4.45 12.2246 4 11.6746 4ZM11.6746 0H1.67456C1.12456 0 0.674561 0.45 0.674561 1C0.674561 1.55 1.12456 2 1.67456 2H11.6746C12.2246 2 12.6746 1.55 12.6746 1C12.6746 0.45 12.2246 0 11.6746 0ZM16.6746 8V5C16.6746 4.45 16.2246 4 15.6746 4C15.1246 4 14.6746 4.45 14.6746 5V8H11.6746C11.1246 8 10.6746 8.45 10.6746 9C10.6746 9.55 11.1246 10 11.6746 10H14.6746V13C14.6746 13.55 15.1246 14 15.6746 14C16.2246 14 16.6746 13.55 16.6746 13V10H19.6746C20.2246 10 20.6746 9.55 20.6746 9C20.6746 8.45 20.2246 8 19.6746 8H16.6746ZM1.67456 10H7.67456C8.22456 10 8.67456 9.55 8.67456 9C8.67456 8.45 8.22456 8 7.67456 8H1.67456C1.12456 8 0.674561 8.45 0.674561 9C0.674561 9.55 1.12456 10 1.67456 10Z" fill="#6D6D6D"/>
</svg>
