<svg width="19" height="17" viewBox="0 0 19 17" fill="none" xmlns="http://www.w3.org/2000/svg">
<path d="M0.674561 6.46102V10.461C0.674561 11.011 1.12456 11.461 1.67456 11.461H4.67456L7.96456 14.751C8.59456 15.381 9.67456 14.931 9.67456 14.041V2.87102C9.67456 1.98102 8.59456 1.53102 7.96456 2.16102L4.67456 5.46102H1.67456C1.12456 5.46102 0.674561 5.91102 0.674561 6.46102ZM14.1746 8.46102C14.1744 7.62315 13.9402 6.80197 13.4985 6.08996C13.0568 5.37796 12.4251 4.80341 11.6746 4.43102V12.481C13.1546 11.751 14.1746 10.231 14.1746 8.46102ZM11.6746 0.911022V1.11102C11.6746 1.49102 11.9246 1.82102 12.2746 1.96102C14.8546 2.99102 16.6746 5.52102 16.6746 8.46102C16.6746 11.401 14.8546 13.931 12.2746 14.961C11.9146 15.101 11.6746 15.431 11.6746 15.811V16.011C11.6746 16.641 12.3046 17.081 12.8846 16.861C16.2746 15.571 18.6746 12.301 18.6746 8.46102C18.6746 4.62102 16.2746 1.35102 12.8846 0.0610225C12.3046 -0.168977 11.6746 0.281022 11.6746 0.911022Z" fill="#6D6D6D"/>
</svg>
