<?xml version="1.0" encoding="UTF-8"?>
<svg xmlns="http://www.w3.org/2000/svg" version="1.1" viewBox="0 0 1511 1511">
  <defs>
    <style>
      .cls-1 {
        fill: #d53131;
        stroke: #d53131;
      }

      .cls-1, .cls-2 {
        stroke-miterlimit: 10;
        stroke-width: 20px;
      }

      .cls-2 {
        fill: #161616;
        stroke: #161616;
      }
    </style>
  </defs>
  <!-- Generator: Adobe Illustrator 28.7.10, SVG Export Plug-In . SVG Version: 1.2.0 Build 236)  -->
  <g>
    <g id="Layer_1">
      <g>
        <path class="cls-2" d="M707.9,1334.5h-289.2c-133.8,0-242.2-108.4-242.2-242.2V418.7c0-133.8,108.4-242.2,242.2-242.2h673.5c133.8,0,242.2,108.4,242.2,242.2v269c0,4.2-3.4,7.7-7.7,7.7h-83.9c-4.2,0-7.7-3.4-7.7-7.7v-269c0-79-64-143-143-143H418.7c-79,0-143,64-143,143v673.5c0,79,64,143,143,143h289.2c4.2,0,7.7,3.4,7.7,7.7v83.9c0,4.2-3.4,7.7-7.7,7.7Z"/>
        <path class="cls-1" d="M895.4,1334.5h-83.9c-4.2,0-7.7-3.4-7.7-7.7v-533.9c0-4.2,3.4-7.7,7.7-7.7h83.9c4.2,0,7.7,3.4,7.7,7.7v533.9c0,4.2-3.4,7.7-7.7,7.7Z"/>
        <rect class="cls-1" x="1022.2" y="785.3" width="99.3" height="549.2" rx="7.7" ry="7.7"/>
        <rect class="cls-1" x="1235.2" y="785.3" width="99.3" height="549.2" rx="7.7" ry="7.7"/>
      </g>
    </g>
  </g>
</svg>