<?xml version="1.0" encoding="UTF-8"?>
<svg id="Layer_1" xmlns="http://www.w3.org/2000/svg" viewBox="0 0 1511 1511">
  <defs>
    <style>
      .cls-1 {
        fill: #6d6d6d;
      }
    </style>
  </defs>
  <path class="cls-1" d="M693.42,1511h-377.34C141.51,1511,0,1369.49,0,1194.92V316.08C0,141.51,141.51,0,316.08,0h878.84c174.57,0,316.08,141.51,316.08,316.08v351.05c0,5.52-4.48,10-10,10h-109.51c-5.52,0-10-4.48-10-10v-351.05c0-103.04-83.53-186.57-186.57-186.57H316.08c-103.04,0-186.57,83.53-186.57,186.57v878.84c0,103.04,83.53,186.57,186.57,186.57h377.34c5.52,0,10,4.48,10,10v109.51c0,5.52-4.48,10-10,10Z"/>
  <path class="cls-1" d="M938.04,1511h-109.51c-5.52,0-10-4.48-10-10v-696.65c0-5.52,4.48-10,10-10h119.51v706.65c0,5.52-4.48,10-10,10Z"/>
  <rect class="cls-1" x="1103.46" y="794.35" width="129.51" height="716.65" rx="10" ry="10"/>
  <rect class="cls-1" x="1381.49" y="794.35" width="129.51" height="716.65" rx="10" ry="10"/>
</svg>